<svg xmlns="http://www.w3.org/2000/svg" version="1.1" xmlns:xlink="http://www.w3.org/1999/xlink" xmlns:svgjs="http://svgjs.dev/svgjs" width="128" height="128" viewBox="0 0 128 128"><g transform="matrix(0.8046875,0,0,0.8046875,12.451339348571999,3.1533937500000135)"><svg viewBox="0 0 80 95" data-background-color="#ffffff" preserveAspectRatio="xMidYMid meet" height="152" width="128" xmlns="http://www.w3.org/2000/svg" xmlns:xlink="http://www.w3.org/1999/xlink"><g id="tight-bounds" transform="matrix(1,0,0,1,0.037794680720779184,-0.24050000000001148)"><svg viewBox="0 0 79.92441063855843 95.48100000000001" height="95.48100000000001" width="79.92441063855843"><g><svg viewBox="0 0 79.92441063855843 95.48100000000001" height="95.48100000000001" width="79.92441063855843"><g><svg viewBox="0 0 79.92441063855843 95.48100000000001" height="95.48100000000001" width="79.92441063855843"><g id="textblocktransform"><svg viewBox="0 0 79.92441063855843 95.48100000000001" height="95.48100000000001" width="79.92441063855843" id="textblock"><g><svg viewBox="0 0 79.92441063855843 95.48100000000001" height="95.48100000000001" width="79.92441063855843"><g><svg viewBox="0 0 79.92441063855843 95.48100000000001" height="95.48100000000001" width="79.92441063855843"><g><svg xmlns="http://www.w3.org/2000/svg" xmlns:xlink="http://www.w3.org/1999/xlink" version="1.1" x="0" y="0" viewBox="10.129007179560064 7.225575998594853 29.778331522695545 35.57442400140514" enable-background="new 0 0 50 50" xml:space="preserve" height="95.48100000000001" width="79.92441063855843" class="icon-icon-0" data-fill-palette-color="accent" id="icon-0"><g fill="#44ab5b" data-fill-palette-color="accent"><path fill="#44ab5b" d="M20.8 42.8c0 0 6.5-4.2 4.8-13.7 0 0 3.5 1.6 0.5 10.4C26.1 39.5 25.3 42.5 20.8 42.8z" data-fill-palette-color="accent"></path><path fill="#44ab5b" d="M26.7 20.7c0 0-1.3 0-0.7 3.8s3.2 8.1 2.4 11.7c0 0 1.8-3.1 0.2-7.7S26.7 21.6 26.7 20.7z" data-fill-palette-color="accent"></path><path fill="#44ab5b" d="M30.2 32.8c0 0-0.9 4.5-2.2 5.9s0.1 3.1 2.2 3.1c0 0-1.2-1.3-0.5-3.2C30.4 36.6 30.1 33.2 30.2 32.8z" data-fill-palette-color="accent"></path><path fill="#44ab5b" d="M29.3 26.9c0 0-3.9-8.6 1.4-11.1C32.3 15 28 19.7 29.3 26.9z" data-fill-palette-color="accent"></path><path fill="#44ab5b" d="M30.2 32c0 0-1.3-5.2 0-4.8C31 27.5 29.9 28.8 30.2 32z" data-fill-palette-color="accent"></path><path fill="#44ab5b" d="M17.6 11.4c-6.2 3.4-10.3 7.2-5.1 10.5s13.3 0.2 15.1-3.2C29.3 15.2 23.8 8 17.6 11.4z" data-fill-palette-color="accent"></path><path fill="#44ab5b" d="M18.9 31.2c-4.6 0.3-6.4-3.4-3.2-5.5s7.8-2.3 9-1.1C25.8 25.7 27.5 30.5 18.9 31.2z" data-fill-palette-color="accent"></path><path fill="#44ab5b" d="M27.9 8.6c1.2-2.8 11.6-1.3 12 4.3S24.2 17 27.9 8.6z" data-fill-palette-color="accent"></path><path fill="#44ab5b" d="M31.5 21.3c0.9-1.2 4-4.5 6.9-1.5s0.5 5.2-1.9 6.8-5.4 1.6-6.3 0C29.3 24.9 30.6 22.5 31.5 21.3z" data-fill-palette-color="accent"></path></g></svg></g></svg></g></svg></g></svg></g></svg></g></svg></g><defs></defs></svg><rect width="79.92441063855843" height="95.48100000000001" fill="none" stroke="none" visibility="hidden"></rect></g></svg></g></svg>